<?xml version="1.0" encoding="UTF-8" standalone="no"?>
<!DOCTYPE svg PUBLIC "-//W3C//DTD SVG 1.1//EN"
 "http://www.w3.org/Graphics/SVG/1.1/DTD/svg11.dtd">
<!-- Generated by graphviz version 2.43.0 (0)
 -->
<!-- Title: %3 Pages: 1 -->
<svg width="893pt" height="476pt"
 viewBox="0.00 0.00 892.56 476.00" xmlns="http://www.w3.org/2000/svg" xmlns:xlink="http://www.w3.org/1999/xlink">
<g id="graph0" class="graph" transform="scale(1 1) rotate(0) translate(4 472)">
<title>%3</title>
<polygon fill="white" stroke="transparent" points="-4,4 -4,-472 888.56,-472 888.56,4 -4,4"/>
<!-- Sílabas -->
<g id="node1" class="node">
<title>Sílabas</title>
<g id="a_node1"><a xlink:href="javascript:go('division-en-silabas-id')" xlink:title=" &#160;&#160;&lt;U&gt;Sílabas&lt;/U&gt;">
<ellipse fill="none" stroke="black" cx="396.05" cy="-234" rx="36.1" ry="18"/>
<text text-anchor="start" x="363.05" y="-231.3" font-family="Times,serif" font-size="14.00"> &#160;&#160;</text>
<text text-anchor="start" x="377.05" y="-231.3" font-family="Times,serif" text-decoration="underline" font-size="14.00">Sílabas</text>
</a>
</g>
</g>
<!-- Sílaba tónica -->
<g id="node3" class="node">
<title>Sílaba tónica</title>
<g id="a_node3"><a xlink:href="javascript:go('silaba-tonica-id')" xlink:title=" &#160;&#160;&lt;U&gt;Sílaba tónica&lt;/U&gt;">
<ellipse fill="none" stroke="black" cx="238.05" cy="-162" rx="58.7" ry="18"/>
<text text-anchor="start" x="184.55" y="-159.3" font-family="Times,serif" font-size="14.00"> &#160;&#160;</text>
<text text-anchor="start" x="198.55" y="-159.3" font-family="Times,serif" text-decoration="underline" font-size="14.00">Sílaba tónica</text>
</a>
</g>
</g>
<!-- Sílabas&#45;&gt;Sílaba tónica -->
<g id="edge4" class="edge">
<title>Sílabas&#45;&gt;Sílaba tónica</title>
<path fill="none" stroke="black" d="M369.96,-221.44C345.39,-210.56 308.19,-194.07 279.55,-181.38"/>
<polygon fill="black" stroke="black" points="280.75,-178.09 270.19,-177.24 277.92,-184.49 280.75,-178.09"/>
</g>
<!-- Diptongo/hiato -->
<g id="node2" class="node">
<title>Diptongo/hiato</title>
<g id="a_node2"><a xlink:href="javascript:go('diptongos-hiatos-id')" xlink:title=" &#160;&#160;&lt;U&gt;Diptongo/hiato&lt;/U&gt;">
<ellipse fill="none" stroke="black" cx="332.05" cy="-378" rx="66" ry="18"/>
<text text-anchor="start" x="272.05" y="-375.3" font-family="Times,serif" font-size="14.00"> &#160;&#160;</text>
<text text-anchor="start" x="286.05" y="-375.3" font-family="Times,serif" text-decoration="underline" font-size="14.00">Diptongo/hiato</text>
</a>
</g>
</g>
<!-- Hiatos -->
<g id="node6" class="node">
<title>Hiatos</title>
<g id="a_node6"><a xlink:href="javascript:go('hiatos-id')" xlink:title=" &#160;&lt;U&gt;Hiatos&lt;/U&gt;">
<ellipse fill="none" stroke="black" cx="349.05" cy="-306" rx="31.2" ry="18"/>
<text text-anchor="start" x="320.55" y="-303.3" font-family="Times,serif" font-size="14.00"> &#160;</text>
<text text-anchor="start" x="330.55" y="-303.3" font-family="Times,serif" text-decoration="underline" font-size="14.00">Hiatos</text>
</a>
</g>
</g>
<!-- Diptongo/hiato&#45;&gt;Hiatos -->
<g id="edge10" class="edge">
<title>Diptongo/hiato&#45;&gt;Hiatos</title>
<path fill="none" stroke="black" d="M336.26,-359.7C338.15,-351.9 340.43,-342.51 342.54,-333.83"/>
<polygon fill="black" stroke="black" points="345.94,-334.65 344.9,-324.1 339.14,-333 345.94,-334.65"/>
</g>
<!-- Normas de acentuación -->
<g id="node10" class="node">
<title>Normas de acentuación</title>
<ellipse fill="none" stroke="black" cx="332.05" cy="-450" rx="92.91" ry="18"/>
<text text-anchor="middle" x="332.05" y="-446.3" font-family="Times,serif" font-size="14.00">Normas de acentuación</text>
</g>
<!-- Diptongo/hiato&#45;&gt;Normas de acentuación -->
<g id="edge9" class="edge">
<title>Diptongo/hiato&#45;&gt;Normas de acentuación</title>
<path fill="none" stroke="black" d="M337.95,-396.1C338.75,-403.79 338.99,-413.05 338.66,-421.67"/>
<polygon fill="black" stroke="black" points="335.16,-421.48 337.97,-431.7 342.15,-421.96 335.16,-421.48"/>
</g>
<!-- Vocal tónica -->
<g id="node11" class="node">
<title>Vocal tónica</title>
<ellipse fill="none" stroke="black" cx="238.05" cy="-90" rx="47.1" ry="18"/>
<text text-anchor="middle" x="238.05" y="-86.3" font-family="Times,serif" font-size="14.00">Vocal tónica</text>
</g>
<!-- Sílaba tónica&#45;&gt;Vocal tónica -->
<g id="edge12" class="edge">
<title>Sílaba tónica&#45;&gt;Vocal tónica</title>
<path fill="none" stroke="black" d="M238.05,-143.7C238.05,-135.98 238.05,-126.71 238.05,-118.11"/>
<polygon fill="black" stroke="black" points="241.55,-118.1 238.05,-108.1 234.55,-118.1 241.55,-118.1"/>
</g>
<!-- Sílabas (ignorando tildes e hiatos) -->
<g id="node4" class="node">
<title>Sílabas (ignorando tildes e hiatos)</title>
<g id="a_node4"><a xlink:href="javascript:go('division-en-silabas-sin-hiatos-id')" xlink:title=" &#160;&#160;&lt;U&gt;Sílabas (ignorando tildes e hiatos)&lt;/U&gt;">
<ellipse fill="none" stroke="black" cx="596.05" cy="-306" rx="141.81" ry="18"/>
<text text-anchor="start" x="467.05" y="-303.3" font-family="Times,serif" font-size="14.00"> &#160;&#160;</text>
<text text-anchor="start" x="481.05" y="-303.3" font-family="Times,serif" text-decoration="underline" font-size="14.00">Sílabas (ignorando tildes e hiatos)</text>
</a>
</g>
</g>
<!-- Sílabas (ignorando tildes e hiatos)&#45;&gt;Sílabas -->
<g id="edge3" class="edge">
<title>Sílabas (ignorando tildes e hiatos)&#45;&gt;Sílabas</title>
<path fill="none" stroke="black" d="M550.17,-288.94C515.26,-276.72 467.76,-260.1 434.76,-248.55"/>
<polygon fill="black" stroke="black" points="435.61,-245.14 425.02,-245.14 433.3,-251.74 435.61,-245.14"/>
</g>
<!-- Significado de la palabra -->
<g id="node5" class="node">
<title>Significado de la palabra</title>
<g id="a_node5"><a xlink:href="javascript:go('significado-palabra-id)'" xlink:title=" &#160;&#160;&lt;U&gt;Significado de la palabra&lt;/U&gt;">
<ellipse fill="none" stroke="black" cx="105.05" cy="-234" rx="105.11" ry="18"/>
<text text-anchor="start" x="9.55" y="-231.3" font-family="Times,serif" font-size="14.00"> &#160;&#160;</text>
<text text-anchor="start" x="23.55" y="-231.3" font-family="Times,serif" text-decoration="underline" font-size="14.00">Significado de la palabra</text>
</a>
</g>
</g>
<!-- Significado de la palabra&#45;&gt;Sílaba tónica -->
<g id="edge5" class="edge">
<title>Significado de la palabra&#45;&gt;Sílaba tónica</title>
<path fill="none" stroke="black" d="M135.9,-216.76C155.2,-206.61 180.18,-193.46 200.61,-182.7"/>
<polygon fill="black" stroke="black" points="202.43,-185.71 209.64,-177.95 199.16,-179.51 202.43,-185.71"/>
</g>
<!-- Hiatos&#45;&gt;Sílabas -->
<g id="edge11" class="edge">
<title>Hiatos&#45;&gt;Sílabas</title>
<path fill="none" stroke="black" d="M359.95,-288.76C365.68,-280.23 372.83,-269.58 379.26,-260.02"/>
<polygon fill="black" stroke="black" points="382.22,-261.89 384.89,-251.63 376.41,-257.98 382.22,-261.89"/>
</g>
<!-- Rimas -->
<g id="node7" class="node">
<title>Rimas</title>
<g id="a_node7"><a xlink:href="javascript:go('rimas-id')" xlink:title=" &#160;&lt;U&gt;Rimas&lt;/U&gt;">
<ellipse fill="none" stroke="black" cx="238.05" cy="-18" rx="30" ry="18"/>
<text text-anchor="start" x="210.55" y="-15.3" font-family="Times,serif" font-size="14.00"> &#160;</text>
<text text-anchor="start" x="220.55" y="-15.3" font-family="Times,serif" text-decoration="underline" font-size="14.00">Rimas</text>
</a>
</g>
</g>
<!-- Palabra escrita -->
<g id="node8" class="node">
<title>Palabra escrita</title>
<ellipse fill="none" stroke="black" cx="554.05" cy="-378" rx="59.3" ry="18"/>
<text text-anchor="middle" x="554.05" y="-374.3" font-family="Times,serif" font-size="14.00">Palabra escrita</text>
</g>
<!-- Palabra escrita&#45;&gt;Sílabas (ignorando tildes e hiatos) -->
<g id="edge1" class="edge">
<title>Palabra escrita&#45;&gt;Sílabas (ignorando tildes e hiatos)</title>
<path fill="none" stroke="black" d="M564.22,-360.05C569.1,-351.92 575.05,-342 580.49,-332.94"/>
<polygon fill="black" stroke="black" points="583.54,-334.65 585.69,-324.28 577.54,-331.05 583.54,-334.65"/>
</g>
<!-- Normas de formación de sílabas -->
<g id="node9" class="node">
<title>Normas de formación de sílabas</title>
<ellipse fill="none" stroke="black" cx="758.05" cy="-378" rx="126.51" ry="18"/>
<text text-anchor="middle" x="758.05" y="-374.3" font-family="Times,serif" font-size="14.00">Normas de formación de sílabas</text>
</g>
<!-- Normas de formación de sílabas&#45;&gt;Sílabas (ignorando tildes e hiatos) -->
<g id="edge2" class="edge">
<title>Normas de formación de sílabas&#45;&gt;Sílabas (ignorando tildes e hiatos)</title>
<path fill="none" stroke="black" d="M720.48,-360.76C697.54,-350.85 668,-338.09 643.47,-327.49"/>
<polygon fill="black" stroke="black" points="644.55,-324.14 633.98,-323.39 641.78,-330.57 644.55,-324.14"/>
</g>
<!-- Normas de acentuación&#45;&gt;Sílabas -->
<g id="edge7" class="edge">
<title>Normas de acentuación&#45;&gt;Sílabas</title>
<path fill="none" stroke="black" d="M367.57,-433.29C382.63,-424.63 398.62,-412.28 407.05,-396 429.24,-353.16 416.6,-295.11 405.95,-261.7"/>
<polygon fill="black" stroke="black" points="409.25,-260.53 402.75,-252.16 402.62,-262.75 409.25,-260.53"/>
</g>
<!-- Normas de acentuación&#45;&gt;Diptongo/hiato -->
<g id="edge8" class="edge">
<title>Normas de acentuación&#45;&gt;Diptongo/hiato</title>
<path fill="none" stroke="black" d="M326.14,-431.7C325.34,-423.98 325.12,-414.71 325.46,-406.11"/>
<polygon fill="black" stroke="black" points="328.95,-406.32 326.16,-396.1 321.97,-405.84 328.95,-406.32"/>
</g>
<!-- Normas de acentuación&#45;&gt;Sílaba tónica -->
<g id="edge6" class="edge">
<title>Normas de acentuación&#45;&gt;Sílaba tónica</title>
<path fill="none" stroke="black" d="M297.52,-433.2C282.48,-424.45 266.22,-412.06 257.05,-396 219.44,-330.08 226.64,-236.13 233.25,-190.28"/>
<polygon fill="black" stroke="black" points="236.74,-190.64 234.81,-180.22 229.82,-189.57 236.74,-190.64"/>
</g>
<!-- Vocal tónica&#45;&gt;Rimas -->
<g id="edge13" class="edge">
<title>Vocal tónica&#45;&gt;Rimas</title>
<path fill="none" stroke="black" d="M238.05,-71.7C238.05,-63.98 238.05,-54.71 238.05,-46.11"/>
<polygon fill="black" stroke="black" points="241.55,-46.1 238.05,-36.1 234.55,-46.1 241.55,-46.1"/>
</g>
</g>
</svg>
