<?xml version="1.0" encoding="UTF-8" standalone="no"?>
<!DOCTYPE svg PUBLIC "-//W3C//DTD SVG 1.1//EN"
 "http://www.w3.org/Graphics/SVG/1.1/DTD/svg11.dtd">
<!-- Generated by graphviz version 2.43.0 (0)
 -->
<!-- Title: %3 Pages: 1 -->
<svg width="507pt" height="404pt"
 viewBox="0.00 0.00 507.36 404.00" xmlns="http://www.w3.org/2000/svg" xmlns:xlink="http://www.w3.org/1999/xlink">
<g id="graph0" class="graph" transform="scale(1 1) rotate(0) translate(4 400)">
<title>%3</title>
<polygon fill="white" stroke="transparent" points="-4,4 -4,-400 503.36,-400 503.36,4 -4,4"/>
<!-- Palabra escrita -->
<g id="node1" class="node">
<title>Palabra escrita</title>
<ellipse fill="none" stroke="black" cx="59.4" cy="-378" rx="59.3" ry="18"/>
<text text-anchor="middle" x="59.4" y="-374.3" font-family="Times,serif" font-size="14.00">Palabra escrita</text>
</g>
<!-- Sílabas (ignorando tildes e hiatos) -->
<g id="node2" class="node">
<title>Sílabas (ignorando tildes e hiatos)</title>
<ellipse fill="none" stroke="black" cx="161.4" cy="-306" rx="134.41" ry="18"/>
<text text-anchor="middle" x="161.4" y="-302.3" font-family="Times,serif" font-size="14.00">Sílabas (ignorando tildes e hiatos)</text>
</g>
<!-- Palabra escrita&#45;&gt;Sílabas (ignorando tildes e hiatos) -->
<g id="edge1" class="edge">
<title>Palabra escrita&#45;&gt;Sílabas (ignorando tildes e hiatos)</title>
<path fill="none" stroke="black" d="M82.29,-361.29C95.84,-351.99 113.25,-340.05 128.28,-329.73"/>
<polygon fill="black" stroke="black" points="130.54,-332.42 136.81,-323.88 126.58,-326.65 130.54,-332.42"/>
</g>
<!-- División -->
<g id="node4" class="node">
<title>División</title>
<ellipse fill="none" stroke="black" cx="161.4" cy="-234" rx="31.8" ry="18"/>
<text text-anchor="middle" x="161.4" y="-230.3" font-family="Times,serif" font-size="14.00">División</text>
</g>
<!-- Sílabas (ignorando tildes e hiatos)&#45;&gt;División -->
<g id="edge3" class="edge">
<title>Sílabas (ignorando tildes e hiatos)&#45;&gt;División</title>
<path fill="none" stroke="black" d="M161.4,-287.7C161.4,-279.98 161.4,-270.71 161.4,-262.11"/>
<polygon fill="black" stroke="black" points="164.9,-262.1 161.4,-252.1 157.9,-262.1 164.9,-262.1"/>
</g>
<!-- Sílabas -->
<g id="node5" class="node">
<title>Sílabas</title>
<ellipse fill="none" stroke="black" cx="263.4" cy="-234" rx="28.7" ry="18"/>
<text text-anchor="middle" x="263.4" y="-230.3" font-family="Times,serif" font-size="14.00">Sílabas</text>
</g>
<!-- Sílabas (ignorando tildes e hiatos)&#45;&gt;Sílabas -->
<g id="edge4" class="edge">
<title>Sílabas (ignorando tildes e hiatos)&#45;&gt;Sílabas</title>
<path fill="none" stroke="black" d="M185.83,-288.23C201.05,-277.79 220.65,-264.34 236.33,-253.58"/>
<polygon fill="black" stroke="black" points="238.33,-256.45 244.59,-247.91 234.37,-250.68 238.33,-256.45"/>
</g>
<!-- Normas de formación de sílabas -->
<g id="node3" class="node">
<title>Normas de formación de sílabas</title>
<ellipse fill="none" stroke="black" cx="263.4" cy="-378" rx="126.51" ry="18"/>
<text text-anchor="middle" x="263.4" y="-374.3" font-family="Times,serif" font-size="14.00">Normas de formación de sílabas</text>
</g>
<!-- Normas de formación de sílabas&#45;&gt;Sílabas (ignorando tildes e hiatos) -->
<g id="edge2" class="edge">
<title>Normas de formación de sílabas&#45;&gt;Sílabas (ignorando tildes e hiatos)</title>
<path fill="none" stroke="black" d="M238.97,-360.23C225.57,-351.04 208.77,-339.51 194.24,-329.54"/>
<polygon fill="black" stroke="black" points="196.21,-326.65 185.99,-323.87 192.25,-332.42 196.21,-326.65"/>
</g>
<!-- Sílaba tónica -->
<g id="node6" class="node">
<title>Sílaba tónica</title>
<ellipse fill="none" stroke="black" cx="291.4" cy="-162" rx="51.3" ry="18"/>
<text text-anchor="middle" x="291.4" y="-158.3" font-family="Times,serif" font-size="14.00">Sílaba tónica</text>
</g>
<!-- Sílabas&#45;&gt;Sílaba tónica -->
<g id="edge5" class="edge">
<title>Sílabas&#45;&gt;Sílaba tónica</title>
<path fill="none" stroke="black" d="M270.04,-216.41C273.27,-208.34 277.23,-198.43 280.86,-189.35"/>
<polygon fill="black" stroke="black" points="284.16,-190.54 284.62,-179.96 277.66,-187.94 284.16,-190.54"/>
</g>
<!-- Vocal tónica -->
<g id="node9" class="node">
<title>Vocal tónica</title>
<ellipse fill="none" stroke="black" cx="291.4" cy="-90" rx="47.1" ry="18"/>
<text text-anchor="middle" x="291.4" y="-86.3" font-family="Times,serif" font-size="14.00">Vocal tónica</text>
</g>
<!-- Sílaba tónica&#45;&gt;Vocal tónica -->
<g id="edge10" class="edge">
<title>Sílaba tónica&#45;&gt;Vocal tónica</title>
<path fill="none" stroke="black" d="M291.4,-143.7C291.4,-135.98 291.4,-126.71 291.4,-118.11"/>
<polygon fill="black" stroke="black" points="294.9,-118.1 291.4,-108.1 287.9,-118.1 294.9,-118.1"/>
</g>
<!-- Normas de acentuación -->
<g id="node7" class="node">
<title>Normas de acentuación</title>
<ellipse fill="none" stroke="black" cx="406.4" cy="-306" rx="92.91" ry="18"/>
<text text-anchor="middle" x="406.4" y="-302.3" font-family="Times,serif" font-size="14.00">Normas de acentuación</text>
</g>
<!-- Normas de acentuación&#45;&gt;Sílabas -->
<g id="edge7" class="edge">
<title>Normas de acentuación&#45;&gt;Sílabas</title>
<path fill="none" stroke="black" d="M373.95,-289.12C350.2,-277.49 318.15,-261.8 294.67,-250.31"/>
<polygon fill="black" stroke="black" points="296.02,-247.07 285.5,-245.82 292.94,-253.36 296.02,-247.07"/>
</g>
<!-- Normas de acentuación&#45;&gt;Sílaba tónica -->
<g id="edge6" class="edge">
<title>Normas de acentuación&#45;&gt;Sílaba tónica</title>
<path fill="none" stroke="black" d="M380.76,-288.5C367.31,-278.96 351.22,-266.09 339.4,-252 323.52,-233.08 310.6,-208.07 302.18,-189.38"/>
<polygon fill="black" stroke="black" points="305.29,-187.76 298.08,-179.99 298.87,-190.55 305.29,-187.76"/>
</g>
<!-- Diptongo/hiato -->
<g id="node8" class="node">
<title>Diptongo/hiato</title>
<ellipse fill="none" stroke="black" cx="406.4" cy="-234" rx="58.1" ry="18"/>
<text text-anchor="middle" x="406.4" y="-230.3" font-family="Times,serif" font-size="14.00">Diptongo/hiato</text>
</g>
<!-- Normas de acentuación&#45;&gt;Diptongo/hiato -->
<g id="edge8" class="edge">
<title>Normas de acentuación&#45;&gt;Diptongo/hiato</title>
<path fill="none" stroke="black" d="M400.49,-287.7C399.69,-279.98 399.46,-270.71 399.81,-262.11"/>
<polygon fill="black" stroke="black" points="403.3,-262.32 400.51,-252.1 396.32,-261.84 403.3,-262.32"/>
</g>
<!-- Diptongo/hiato&#45;&gt;Normas de acentuación -->
<g id="edge9" class="edge">
<title>Diptongo/hiato&#45;&gt;Normas de acentuación</title>
<path fill="none" stroke="black" d="M412.3,-252.1C413.1,-259.79 413.34,-269.05 413.01,-277.67"/>
<polygon fill="black" stroke="black" points="409.51,-277.48 412.32,-287.7 416.49,-277.96 409.51,-277.48"/>
</g>
<!-- Rimas -->
<g id="node10" class="node">
<title>Rimas</title>
<ellipse fill="none" stroke="black" cx="291.4" cy="-18" rx="27" ry="18"/>
<text text-anchor="middle" x="291.4" y="-14.3" font-family="Times,serif" font-size="14.00">Rimas</text>
</g>
<!-- Vocal tónica&#45;&gt;Rimas -->
<g id="edge11" class="edge">
<title>Vocal tónica&#45;&gt;Rimas</title>
<path fill="none" stroke="black" d="M291.4,-71.7C291.4,-63.98 291.4,-54.71 291.4,-46.11"/>
<polygon fill="black" stroke="black" points="294.9,-46.1 291.4,-36.1 287.9,-46.1 294.9,-46.1"/>
</g>
</g>
</svg>
