<?xml version="1.0" encoding="UTF-8" standalone="no"?>
<!DOCTYPE svg PUBLIC "-//W3C//DTD SVG 1.1//EN"
 "http://www.w3.org/Graphics/SVG/1.1/DTD/svg11.dtd">
<!-- Generated by graphviz version 2.43.0 (0)
 -->
<!-- Title: %3 Pages: 1 -->
<svg width="583pt" height="404pt"
 viewBox="0.00 0.00 582.70 404.00" xmlns="http://www.w3.org/2000/svg" xmlns:xlink="http://www.w3.org/1999/xlink">
<g id="graph0" class="graph" transform="scale(1 1) rotate(0) translate(4 400)">
<title>%3</title>
<polygon fill="white" stroke="transparent" points="-4,4 -4,-400 578.7,-400 578.7,4 -4,4"/>
<!-- Palabra escrita -->
<g id="node1" class="node">
<title>Palabra escrita</title>
<ellipse fill="none" stroke="black" cx="59.4" cy="-378" rx="59.3" ry="18"/>
<text text-anchor="middle" x="59.4" y="-374.3" font-family="Times,serif" font-size="14.00">Palabra escrita</text>
</g>
<!-- Sílabas (ignorando tildes e hiatos) -->
<g id="node2" class="node">
<title>Sílabas (ignorando tildes e hiatos)</title>
<ellipse fill="none" stroke="black" cx="161.4" cy="-306" rx="134.41" ry="18"/>
<text text-anchor="middle" x="161.4" y="-302.3" font-family="Times,serif" font-size="14.00">Sílabas (ignorando tildes e hiatos)</text>
</g>
<!-- Palabra escrita&#45;&gt;Sílabas (ignorando tildes e hiatos) -->
<g id="edge1" class="edge">
<title>Palabra escrita&#45;&gt;Sílabas (ignorando tildes e hiatos)</title>
<path fill="none" stroke="black" d="M82.29,-361.29C95.84,-351.99 113.25,-340.05 128.28,-329.73"/>
<polygon fill="black" stroke="black" points="130.54,-332.42 136.81,-323.88 126.58,-326.65 130.54,-332.42"/>
</g>
<!-- Sílabas -->
<g id="node4" class="node">
<title>Sílabas</title>
<ellipse fill="none" stroke="black" cx="161.4" cy="-234" rx="28.7" ry="18"/>
<text text-anchor="middle" x="161.4" y="-230.3" font-family="Times,serif" font-size="14.00">Sílabas</text>
</g>
<!-- Sílabas (ignorando tildes e hiatos)&#45;&gt;Sílabas -->
<g id="edge3" class="edge">
<title>Sílabas (ignorando tildes e hiatos)&#45;&gt;Sílabas</title>
<path fill="none" stroke="black" d="M161.4,-287.7C161.4,-279.98 161.4,-270.71 161.4,-262.11"/>
<polygon fill="black" stroke="black" points="164.9,-262.1 161.4,-252.1 157.9,-262.1 164.9,-262.1"/>
</g>
<!-- Normas de formación de sílabas -->
<g id="node3" class="node">
<title>Normas de formación de sílabas</title>
<ellipse fill="none" stroke="black" cx="263.4" cy="-378" rx="126.51" ry="18"/>
<text text-anchor="middle" x="263.4" y="-374.3" font-family="Times,serif" font-size="14.00">Normas de formación de sílabas</text>
</g>
<!-- Normas de formación de sílabas&#45;&gt;Sílabas (ignorando tildes e hiatos) -->
<g id="edge2" class="edge">
<title>Normas de formación de sílabas&#45;&gt;Sílabas (ignorando tildes e hiatos)</title>
<path fill="none" stroke="black" d="M238.97,-360.23C225.57,-351.04 208.77,-339.51 194.24,-329.54"/>
<polygon fill="black" stroke="black" points="196.21,-326.65 185.99,-323.87 192.25,-332.42 196.21,-326.65"/>
</g>
<!-- Sílaba tónica -->
<g id="node5" class="node">
<title>Sílaba tónica</title>
<ellipse fill="none" stroke="black" cx="305.4" cy="-162" rx="51.3" ry="18"/>
<text text-anchor="middle" x="305.4" y="-158.3" font-family="Times,serif" font-size="14.00">Sílaba tónica</text>
</g>
<!-- Sílabas&#45;&gt;Sílaba tónica -->
<g id="edge4" class="edge">
<title>Sílabas&#45;&gt;Sílaba tónica</title>
<path fill="none" stroke="black" d="M183.27,-222.37C205.58,-211.52 240.64,-194.48 267.49,-181.43"/>
<polygon fill="black" stroke="black" points="269.14,-184.52 276.6,-177 266.08,-178.22 269.14,-184.52"/>
</g>
<!-- Vocal tónica -->
<g id="node9" class="node">
<title>Vocal tónica</title>
<ellipse fill="none" stroke="black" cx="305.4" cy="-90" rx="47.1" ry="18"/>
<text text-anchor="middle" x="305.4" y="-86.3" font-family="Times,serif" font-size="14.00">Vocal tónica</text>
</g>
<!-- Sílaba tónica&#45;&gt;Vocal tónica -->
<g id="edge10" class="edge">
<title>Sílaba tónica&#45;&gt;Vocal tónica</title>
<path fill="none" stroke="black" d="M305.4,-143.7C305.4,-135.98 305.4,-126.71 305.4,-118.11"/>
<polygon fill="black" stroke="black" points="308.9,-118.1 305.4,-108.1 301.9,-118.1 308.9,-118.1"/>
</g>
<!-- Significado de la palabra -->
<g id="node6" class="node">
<title>Significado de la palabra</title>
<ellipse fill="none" stroke="black" cx="305.4" cy="-234" rx="97.21" ry="18"/>
<text text-anchor="middle" x="305.4" y="-230.3" font-family="Times,serif" font-size="14.00">Significado de la palabra</text>
</g>
<!-- Significado de la palabra&#45;&gt;Sílaba tónica -->
<g id="edge5" class="edge">
<title>Significado de la palabra&#45;&gt;Sílaba tónica</title>
<path fill="none" stroke="black" d="M305.4,-215.7C305.4,-207.98 305.4,-198.71 305.4,-190.11"/>
<polygon fill="black" stroke="black" points="308.9,-190.1 305.4,-180.1 301.9,-190.1 308.9,-190.1"/>
</g>
<!-- Normas de acentuación -->
<g id="node7" class="node">
<title>Normas de acentuación</title>
<ellipse fill="none" stroke="black" cx="473.4" cy="-306" rx="92.91" ry="18"/>
<text text-anchor="middle" x="473.4" y="-302.3" font-family="Times,serif" font-size="14.00">Normas de acentuación</text>
</g>
<!-- Normas de acentuación&#45;&gt;Sílabas -->
<g id="edge7" class="edge">
<title>Normas de acentuación&#45;&gt;Sílabas</title>
<path fill="none" stroke="black" d="M398.7,-295.29C342.95,-286.91 265.36,-272.83 199.4,-252 197.13,-251.28 194.82,-250.47 192.51,-249.6"/>
<polygon fill="black" stroke="black" points="193.75,-246.32 183.17,-245.77 191.09,-252.8 193.75,-246.32"/>
</g>
<!-- Normas de acentuación&#45;&gt;Sílaba tónica -->
<g id="edge6" class="edge">
<title>Normas de acentuación&#45;&gt;Sílaba tónica</title>
<path fill="none" stroke="black" d="M464.94,-288.02C454.55,-268.56 435.33,-236.69 411.4,-216 393.4,-200.43 370.02,-188.11 349.8,-179.28"/>
<polygon fill="black" stroke="black" points="351.04,-176.01 340.47,-175.35 348.33,-182.46 351.04,-176.01"/>
</g>
<!-- Diptongo/hiato -->
<g id="node8" class="node">
<title>Diptongo/hiato</title>
<ellipse fill="none" stroke="black" cx="516.4" cy="-234" rx="58.1" ry="18"/>
<text text-anchor="middle" x="516.4" y="-230.3" font-family="Times,serif" font-size="14.00">Diptongo/hiato</text>
</g>
<!-- Normas de acentuación&#45;&gt;Diptongo/hiato -->
<g id="edge8" class="edge">
<title>Normas de acentuación&#45;&gt;Diptongo/hiato</title>
<path fill="none" stroke="black" d="M478.12,-287.7C482.38,-279.35 488.43,-269.18 494.54,-260.02"/>
<polygon fill="black" stroke="black" points="497.53,-261.84 500.35,-251.62 491.78,-257.85 497.53,-261.84"/>
</g>
<!-- Diptongo/hiato&#45;&gt;Normas de acentuación -->
<g id="edge9" class="edge">
<title>Diptongo/hiato&#45;&gt;Normas de acentuación</title>
<path fill="none" stroke="black" d="M511.7,-252.28C507.48,-260.54 501.5,-270.6 495.45,-279.71"/>
<polygon fill="black" stroke="black" points="492.49,-277.84 489.69,-288.05 498.25,-281.81 492.49,-277.84"/>
</g>
<!-- Rimas -->
<g id="node10" class="node">
<title>Rimas</title>
<ellipse fill="none" stroke="black" cx="305.4" cy="-18" rx="27" ry="18"/>
<text text-anchor="middle" x="305.4" y="-14.3" font-family="Times,serif" font-size="14.00">Rimas</text>
</g>
<!-- Vocal tónica&#45;&gt;Rimas -->
<g id="edge11" class="edge">
<title>Vocal tónica&#45;&gt;Rimas</title>
<path fill="none" stroke="black" d="M305.4,-71.7C305.4,-63.98 305.4,-54.71 305.4,-46.11"/>
<polygon fill="black" stroke="black" points="308.9,-46.1 305.4,-36.1 301.9,-46.1 308.9,-46.1"/>
</g>
</g>
</svg>
